<?xml version="1.0" standalone="no"?>
<!DOCTYPE svg PUBLIC "-//W3C//DTD SVG 20010904//EN"
 "http://www.w3.org/TR/2001/REC-SVG-20010904/DTD/svg10.dtd">
<svg version="1.0" xmlns="http://www.w3.org/2000/svg"
 width="8668.000000pt" height="8668.000000pt" viewBox="0 0 8668.000000 8668.000000"
 preserveAspectRatio="xMidYMid meet">

<g transform="translate(0.000000,8668.000000) scale(0.100000,-0.100000)"
fill="#000000" stroke="none">
<path d="M43485 72953 c-2262 -76 -4508 -570 -6840 -1503 -2528 -1011 -5078
-2540 -7216 -4327 -1076 -899 -2107 -1931 -3014 -3018 -2306 -2763 -4032
-6072 -5085 -9745 -490 -1709 -784 -3324 -965 -5300 -280 -3066 -35 -5917 720
-8385 1014 -3311 2915 -5909 5720 -7817 1824 -1240 4070 -2176 6344 -2642
2037 -418 4287 -389 6701 85 950 187 1753 390 3225 818 985 285 1301 370 1650
440 267 53 416 71 601 71 243 0 380 -38 484 -136 105 -98 146 -258 105 -414
-52 -201 -230 -465 -551 -815 -71 -77 -399 -412 -729 -745 -726 -732 -1008
-1031 -1364 -1445 -1232 -1433 -2009 -2865 -2401 -4423 -115 -459 -187 -958
-242 -1682 -18 -228 -17 -1249 0 -1470 62 -781 177 -1382 375 -1965 384 -1125
1014 -1920 1972 -2487 871 -515 1972 -810 3280 -879 285 -15 1046 -6 1335 15
631 47 1193 124 1828 252 2519 503 5204 1674 7752 3379 418 280 648 442 712
503 75 71 118 155 118 229 0 66 -15 97 -73 150 -119 110 -321 168 -987 283
-847 147 -1265 263 -1675 465 -273 134 -455 264 -645 461 -172 179 -277 359
-364 625 -141 430 -202 1048 -176 1808 36 1111 176 2150 422 3136 113 457 227
839 481 1625 320 986 437 1379 576 1935 150 600 357 1588 461 2200 274 1605
264 2832 -35 4249 -204 969 -512 1877 -910 2681 -873 1767 -2131 2892 -3670
3283 -432 110 -806 155 -1290 154 -515 -1 -1007 -59 -1635 -193 -277 -59 -925
-218 -1177 -290 -1066 -301 -2072 -763 -3005 -1381 -562 -372 -1026 -740
-1538 -1218 -1139 -1066 -2588 -1912 -4038 -2360 -709 -219 -1338 -339 -2107
-402 -217 -18 -1043 -17 -1270 0 -1518 119 -2848 553 -4165 1358 -1000 611
-1922 1424 -2871 2534 -803 938 -1456 2022 -1934 3210 -376 934 -653 1977
-829 3125 -212 1377 -217 2735 -15 4135 266 1851 894 3704 1876 5539 360 672
634 1132 1038 1741 1704 2570 4014 4864 6250 6208 1333 800 2556 1242 3765
1359 217 21 742 23 940 4 694 -66 1251 -229 1910 -562 808 -407 1517 -981
1992 -1614 393 -524 621 -1060 705 -1655 24 -176 24 -594 -1 -775 -99 -720
-396 -1364 -926 -2005 -131 -159 -476 -504 -645 -643 -248 -207 -503 -388
-785 -558 -181 -109 -576 -311 -772 -394 l-137 -58 56 -76 c493 -668 1109
-1297 1756 -1794 1173 -902 2499 -1446 3947 -1622 550 -66 1215 -72 1794 -14
1875 186 3695 979 5152 2245 1083 941 1921 2124 2457 3469 357 895 564 1794
644 2795 21 269 24 1029 5 1280 -38 487 -101 937 -188 1330 -421 1899 -1392
3459 -2912 4677 -780 625 -1750 1178 -2842 1621 -717 290 -1490 536 -2630 836
-931 245 -1997 414 -3000 476 -421 26 -1105 36 -1495 23z"/>
</g>
</svg>
