<?xml version="1.0" standalone="no"?>
<!DOCTYPE svg PUBLIC "-//W3C//DTD SVG 20010904//EN"
 "http://www.w3.org/TR/2001/REC-SVG-20010904/DTD/svg10.dtd">
<svg version="1.0" xmlns="http://www.w3.org/2000/svg"
 width="4585.000000pt" height="3182.000000pt" viewBox="0 0 4585.000000 3182.000000"
 preserveAspectRatio="xMidYMid meet">

<g transform="translate(0.000000,3182.000000) scale(0.100000,-0.100000)"
fill="#000000" stroke="none">
<path d="M31082 24245 c-7 -15 -8 -25 -2 -25 6 0 10 -11 10 -25 0 -14 -4 -25
-10 -25 -5 0 -10 5 -10 12 0 6 -3 9 -6 5 -3 -3 -2 -12 2 -19 9 -13 14 -33 16
-55 1 -7 7 -13 14 -13 8 0 11 6 7 17 -4 10 -2 14 4 10 6 -4 9 6 7 28 -1 20 2
33 7 29 5 -3 9 0 9 5 0 6 -4 11 -10 11 -5 0 -10 5 -10 11 0 5 5 7 10 4 13 -8
13 5 0 25 -6 10 -10 11 -10 3 0 -7 -5 -13 -11 -13 -6 0 -8 9 -4 20 9 28 0 25
-13 -5z"/>
<path d="M28971 23254 c-269 -34 -502 -104 -746 -224 -262 -129 -438 -254
-633 -453 -423 -429 -645 -912 -684 -1487 -24 -355 48 -733 196 -1028 97 -193
183 -322 310 -467 93 -105 90 -101 176 -180 212 -193 480 -355 678 -410 34
-10 62 -22 62 -26 0 -5 8 -9 17 -9 25 0 7 -13 -24 -16 -14 -2 -29 -7 -32 -11
-3 -5 -25 -17 -48 -27 -24 -11 -43 -24 -43 -30 0 -12 -56 -40 -77 -39 -7 0
-11 -4 -10 -11 1 -6 -6 -10 -15 -8 -10 2 -18 -2 -18 -8 0 -6 -4 -9 -8 -6 -11
7 -56 -26 -61 -44 -2 -8 -4 -24 -3 -35 0 -11 -2 -14 -5 -7 -3 6 -9 12 -15 12
-6 0 -8 -7 -5 -14 4 -9 -2 -17 -14 -21 -10 -4 -19 -13 -19 -21 0 -13 -12 -18
-32 -15 -5 0 -8 -3 -8 -9 0 -5 -9 -18 -20 -28 -11 -10 -20 -29 -20 -43 -1 -82
-4 -99 -12 -87 -6 9 -8 3 -4 -17 6 -29 6 -29 -10 -10 -16 20 -16 20 -10 -1 4
-12 2 -41 -3 -65 -7 -30 -6 -47 1 -56 10 -12 4 -17 -16 -14 -4 1 -5 -10 -2
-24 4 -17 3 -24 -4 -20 -13 8 -13 -8 0 -21 6 -6 6 -15 0 -24 -9 -13 -10 -13
-10 0 0 13 -2 13 -9 1 -5 -8 -8 -30 -6 -50 1 -20 -2 -39 -9 -43 -7 -5 -4 -8 7
-8 15 0 16 -3 6 -21 -8 -15 -8 -19 0 -15 17 11 13 -10 -4 -24 -13 -11 -10 -16
22 -39 58 -39 91 -58 171 -97 48 -23 70 -39 66 -47 -4 -7 -35 -52 -69 -102
-34 -49 -96 -140 -138 -202 -90 -134 -140 -202 -147 -203 -7 0 -91 141 -239
397 l-97 168 -174 -4 c-96 -2 -196 -6 -222 -10 l-48 -6 58 -90 c71 -111 212
-336 322 -515 46 -74 100 -161 122 -192 21 -31 38 -62 38 -68 0 -6 -53 -86
-117 -178 -64 -92 -141 -203 -172 -247 -30 -44 -124 -175 -208 -292 -84 -117
-153 -217 -153 -222 0 -10 316 -6 386 5 23 3 40 17 70 62 84 120 321 460 358
515 22 31 42 57 45 57 4 0 26 -33 51 -72 116 -190 302 -485 318 -507 l19 -24
204 13 c112 6 206 14 208 16 2 2 -27 50 -66 106 -38 57 -116 177 -173 268 -57
91 -150 237 -208 325 -57 87 -109 169 -115 182 -9 20 -4 31 31 80 44 60 208
321 258 408 21 38 115 180 141 214 2 3 45 -10 96 -28 231 -83 631 -185 878
-225 242 -40 614 -42 877 -6 163 23 612 95 671 108 l34 7 -2 101 c-5 239 60
513 226 964 36 96 73 200 83 230 10 30 48 138 84 240 37 102 87 248 112 325
26 77 52 154 59 170 8 17 29 80 49 140 19 61 64 202 101 314 138 425 226 791
304 1256 12 66 28 161 36 210 99 576 151 897 161 1000 3 28 9 66 14 85 12 46
38 227 45 315 4 38 8 72 10 75 2 3 -13 6 -33 5 -34 0 -37 2 -36 28 0 32 -11
36 -19 6 -3 -12 -10 -18 -16 -14 -7 3 -8 0 -5 -9 4 -11 0 -16 -10 -16 -9 0
-16 5 -16 10 0 17 -18 11 -25 -9 -7 -22 -39 -33 -54 -18 -7 7 -9 3 -8 -12 1
-22 12 -28 22 -12 3 6 15 9 26 8 17 -1 18 -3 6 -12 -9 -7 -14 -22 -11 -40 3
-28 3 -29 -5 -5 -5 14 -9 19 -10 13 -1 -7 -5 -13 -11 -13 -5 0 -7 6 -4 14 3 8
-3 16 -15 19 -14 3 -21 13 -21 28 0 17 -3 20 -11 12 -9 -9 -8 -18 5 -38 10
-15 15 -29 12 -33 -3 -3 -6 0 -6 6 0 7 -7 12 -16 12 -10 0 -14 5 -10 16 3 8 2
12 -4 9 -6 -3 -10 -17 -10 -30 0 -18 -10 -27 -42 -40 -24 -10 -37 -20 -30 -22
6 -3 12 -12 12 -22 0 -22 -26 -58 -36 -49 -4 5 1 17 11 29 11 12 15 23 10 27
-6 4 -16 15 -24 25 -12 15 -12 17 3 11 18 -7 21 3 7 25 -5 7 -14 10 -21 6 -12
-7 -10 -44 4 -77 6 -13 3 -15 -15 -11 -13 4 -18 8 -11 11 6 2 12 8 12 13 0 4
-7 5 -17 2 -11 -4 -14 -3 -9 5 4 7 2 12 -4 12 -6 0 -15 -11 -22 -25 -6 -13
-15 -22 -21 -18 -5 3 -6 -3 -3 -15 4 -11 2 -23 -4 -27 -5 -3 -10 1 -10 10 0
10 -5 13 -12 9 -13 -8 -3 12 20 39 10 11 11 17 4 17 -7 0 -12 5 -12 11 0 6 7
9 15 6 8 -4 17 -1 21 5 4 6 3 8 -3 5 -13 -8 -37 19 -29 32 4 5 2 12 -4 16 -6
4 -10 -6 -10 -25 0 -18 -4 -29 -10 -25 -5 3 -10 1 -10 -5 0 -6 7 -13 15 -16 8
-4 15 -11 15 -16 0 -6 -7 -7 -16 -4 -8 3 -12 2 -9 -4 3 -6 2 -10 -3 -10 -12 0
-10 -33 3 -42 13 -9 6 -14 -33 -21 -20 -4 -31 -3 -27 3 3 5 1 18 -4 27 -10 17
-10 17 -11 1 0 -20 -15 -24 -25 -8 -3 6 -14 10 -23 9 -13 0 -12 -3 6 -11 22
-11 30 -28 12 -28 -5 0 -10 -5 -10 -11 0 -9 4 -9 13 0 11 8 18 6 31 -8 10 -11
13 -22 8 -25 -6 -3 -12 0 -15 8 -5 14 -46 14 -68 0 -7 -4 -18 1 -26 11 -15 22
-17 12 -3 -15 6 -11 16 -17 23 -14 10 3 14 -5 14 -28 0 -18 -2 -28 -4 -22 -7
22 -40 3 -40 -22 0 -13 3 -21 8 -18 5 3 9 12 9 20 0 8 5 12 11 9 7 -5 5 -13
-5 -24 -9 -10 -13 -22 -9 -27 5 -5 -3 0 -16 11 l-24 20 7 -25 c3 -14 3 -19 0
-12 -8 17 -24 15 -24 -3 0 -8 -4 -15 -8 -15 -4 0 -8 9 -8 19 0 11 3 18 7 15 4
-2 10 3 13 12 9 23 7 36 -3 29 -5 -3 -12 -1 -15 4 -5 8 21 26 35 23 3 0 6 6 6
14 0 17 -9 18 -25 2 -7 -7 -12 -8 -12 -2 0 6 3 14 7 18 13 13 9 41 -9 54 -9 7
-15 19 -12 27 4 10 0 15 -15 15 -12 0 -21 5 -21 11 0 5 -5 7 -11 4 -6 -5 -4
-12 8 -21 17 -13 17 -13 -4 -14 -13 0 -23 -4 -23 -10 0 -5 5 -10 12 -10 6 0 8
-3 4 -7 -4 -4 -17 -8 -29 -8 -12 0 -22 -5 -22 -12 0 -19 -45 -55 -61 -49 -9 3
-14 -1 -14 -14 0 -10 -8 -24 -17 -29 -10 -6 -14 -11 -10 -11 19 0 -26 -45 -46
-45 -14 0 -23 -7 -25 -20 -2 -11 -10 -27 -18 -36 -8 -9 -12 -23 -9 -32 4 -8 2
-18 -4 -22 -6 -3 -9 0 -5 8 3 8 -2 17 -10 20 -10 4 -13 1 -10 -7 3 -8 1 -17
-5 -20 -6 -4 -8 -13 -4 -21 3 -10 -1 -15 -13 -15 -16 0 -16 -2 -4 -10 12 -8
12 -10 -3 -16 -9 -3 -17 -13 -17 -21 0 -9 -6 -13 -15 -10 -8 4 -17 2 -20 -2
-3 -5 3 -12 12 -15 14 -6 13 -10 -12 -28 -17 -11 -22 -18 -12 -14 9 3 17 2 17
-2 0 -12 -20 -38 -20 -27 0 6 -4 4 -8 -2 -5 -9 -21 10 -47 55 -90 152 -274
351 -433 467 -253 184 -557 306 -897 361 -140 22 -468 27 -614 8z m3155 -200
c8 3 11 0 7 -10 -3 -9 -10 -11 -17 -6 -21 17 -56 21 -56 7 0 -7 -8 -16 -17
-19 -10 -4 -14 -4 -10 0 4 4 -1 13 -11 20 -9 7 -13 16 -9 20 4 5 12 2 16 -5 7
-11 13 -11 31 2 20 14 24 14 38 1 8 -8 21 -13 28 -10z m-68 -60 c0 -17 -4 -22
-11 -15 -5 5 -7 17 -4 25 9 23 15 19 15 -10z m-162 -39 c-9 -9 -16 -20 -16
-25 0 -5 -7 -6 -17 -3 -11 4 -14 3 -9 -5 4 -7 2 -12 -3 -12 -13 0 -14 10 -1
30 5 8 12 11 16 7 4 -4 14 2 22 14 8 11 16 18 19 15 3 -3 -2 -12 -11 -21z
m-173 -106 c-5 -5 -8 3 -7 19 2 43 7 50 11 18 3 -16 1 -32 -4 -37z m-83 -29
c0 -5 -5 -10 -11 -10 -5 0 -7 -4 -4 -10 3 -5 1 -10 -4 -10 -12 0 -15 23 -4 33
10 10 23 8 23 -3z m60 -20 c0 -5 -5 -10 -11 -10 -5 0 -7 5 -4 10 3 6 8 10 11
10 2 0 4 -4 4 -10z m-155 -30 c4 -6 11 -8 16 -5 5 4 9 2 9 -4 0 -19 -17 -20
-33 0 -9 10 -13 19 -7 19 5 0 12 -5 15 -10z m-400 -130 c3 -5 1 -10 -4 -10 -6
0 -11 5 -11 10 0 6 2 10 4 10 3 0 8 -4 11 -10z m-1165 -257 c-1 -5 -87 -181
-193 -393 -192 -385 -192 -385 -225 -388 -19 -2 -40 -1 -48 2 -10 4 36 103
173 373 102 202 192 378 200 391 10 17 23 22 53 22 22 0 40 -3 40 -7z m-378
-13 c11 0 35 -15 54 -34 33 -33 34 -37 34 -108 0 -93 -21 -166 -59 -202 -54
-52 -143 -52 -192 0 -22 24 -24 34 -24 122 1 102 18 155 61 193 24 20 75 39
92 33 8 -2 23 -4 34 -4z m-366 -39 c68 -42 96 -137 88 -306 -9 -189 -48 -310
-121 -375 -60 -53 -114 -62 -180 -29 -73 37 -97 92 -102 236 -7 247 42 407
143 468 52 31 127 34 172 6z m-504 -1 c46 -13 92 -67 107 -126 25 -97 8 -369
-29 -467 -51 -137 -164 -190 -267 -127 -71 43 -101 181 -83 383 17 200 57 284
155 328 46 21 66 23 117 9z m-427 -147 c-4 -76 -12 -240 -19 -365 -6 -125 -14
-229 -16 -231 -3 -2 -29 -7 -59 -11 l-54 -7 7 188 c3 103 9 221 13 262 l6 75
-44 -36 c-93 -75 -109 -75 -109 2 0 58 0 59 43 89 53 36 103 91 125 137 15 32
19 34 65 34 l50 0 -8 -137z m1725 -201 c69 -70 36 -290 -52 -346 -67 -42 -148
-23 -175 41 -22 54 -13 177 19 241 45 91 149 123 208 64z m-183 -504 c-3 -33
-7 -62 -10 -64 -3 -3 -30 -8 -61 -11 -63 -7 -63 -7 -50 90 l7 46 51 3 c28 2
55 1 60 -1 5 -2 6 -30 3 -63z m-973 23 c5 -8 -70 -694 -79 -718 -3 -8 -24 -13
-60 -13 -53 0 -55 1 -55 28 0 15 16 159 35 320 19 162 35 311 35 331 0 20 5
42 12 49 14 14 104 16 112 3z m693 -75 c-6 -90 -1 -101 42 -89 19 5 21 1 21
-50 0 -60 -9 -73 -55 -79 l-30 -3 -13 -105 c-7 -58 -11 -123 -10 -145 3 -39 4
-40 36 -37 l32 2 0 -55 c0 -63 -10 -72 -90 -82 -45 -5 -51 -3 -79 25 -37 36
-38 59 -16 257 8 72 15 133 15 138 0 4 -11 7 -25 7 -27 0 -29 7 -17 75 6 31
12 40 32 45 21 5 26 13 30 53 3 26 10 51 15 56 24 21 99 71 108 71 6 0 8 -31
4 -84z m-1536 42 c75 -25 115 -74 134 -165 6 -31 5 -31 -48 -47 -71 -21 -74
-20 -82 7 -10 31 -53 74 -81 81 -35 9 -98 -10 -134 -41 -17 -14 -43 -49 -58
-77 -23 -46 -26 -62 -26 -156 0 -122 15 -168 66 -200 42 -26 103 -21 163 15
31 18 44 33 49 56 11 59 11 59 -60 59 l-67 0 7 62 c4 35 9 64 11 66 1 2 60 6
130 9 l128 6 -7 -64 c-3 -35 -11 -104 -18 -152 l-11 -89 -51 -38 c-142 -108
-294 -113 -385 -15 -62 67 -83 123 -88 235 -9 158 32 275 128 372 40 41 70 61
105 72 60 18 149 20 195 4z m2233 -109 c41 -19 58 -65 53 -144 -5 -94 -64
-377 -80 -387 -17 -11 -107 -10 -107 1 0 5 5 31 10 58 50 237 60 329 38 351
-27 27 -95 6 -118 -38 -9 -17 -22 -77 -71 -322 l-11 -56 -50 -7 c-27 -4 -52
-4 -55 -1 -3 3 6 90 20 193 14 104 29 215 32 248 10 97 9 95 71 95 52 0 54 -1
54 -27 l0 -26 23 20 c54 50 135 67 191 42z m-438 -61 c-3 -24 -13 -106 -21
-183 -18 -161 -42 -296 -54 -308 -12 -12 -106 -4 -104 9 1 6 13 112 28 235 14
123 28 239 31 257 l5 32 61 0 60 0 -6 -42z m-569 12 c51 -30 57 -72 37 -247
-9 -82 -14 -176 -11 -210 l5 -63 -58 0 c-50 0 -60 3 -65 20 -6 19 -8 19 -46
-7 -78 -51 -180 -39 -214 27 -34 65 -6 176 55 222 17 12 72 37 123 53 l92 30
0 35 c0 28 -5 36 -27 44 -35 12 -82 -7 -97 -40 -10 -22 -16 -25 -44 -19 -58
12 -67 16 -67 34 0 32 59 102 103 122 59 26 170 26 214 -1z m-715 -27 c16 -10
41 -39 54 -65 20 -40 24 -62 24 -138 0 -49 -1 -91 -2 -91 -2 -1 -65 -4 -140
-8 -75 -3 -139 -9 -143 -13 -4 -4 -1 -26 6 -50 24 -74 84 -83 124 -19 19 30
23 32 68 27 63 -7 68 -11 56 -44 -28 -73 -122 -142 -194 -142 -135 0 -203 109
-176 280 21 126 75 220 150 260 47 25 132 26 173 3z m-103 -622 c9 -6 11 -18
6 -42 -11 -52 -22 -68 -44 -62 -10 3 -29 0 -41 -7 -17 -9 -21 -19 -18 -53 3
-41 4 -42 36 -39 l32 4 0 -59 0 -59 -37 -10 -38 -9 -5 -210 -5 -210 -50 -6
c-27 -3 -54 -4 -59 -1 -5 3 -5 96 -1 213 l7 209 -31 0 -31 0 0 59 c0 56 1 59
29 64 27 6 28 9 35 79 7 82 24 114 69 133 36 16 125 19 146 6z m1041 -166 c15
-8 39 -31 52 -52 20 -33 23 -51 23 -136 0 -76 -3 -100 -15 -107 -8 -5 -70 -10
-138 -10 -119 0 -123 -1 -133 -24 -14 -30 6 -75 40 -93 31 -15 70 3 91 42 13
25 18 26 60 20 58 -9 65 -16 47 -51 -39 -75 -122 -124 -207 -124 -62 0 -102
19 -128 62 -77 126 15 407 153 469 49 22 116 24 155 4z m-473 -6 c79 -29 114
-114 97 -236 l-9 -68 -115 -6 c-63 -4 -123 -7 -132 -8 -14 -1 -18 -10 -18 -41
0 -44 27 -80 59 -80 19 0 71 52 71 71 0 11 90 2 103 -11 14 -12 -28 -83 -72
-123 -103 -93 -227 -62 -262 66 -7 25 -9 84 -7 143 4 85 9 111 32 158 53 108
165 169 253 135z m-284 -18 c7 -7 4 -30 -8 -68 -23 -75 -23 -75 -46 -62 -29
15 -59 1 -74 -34 -13 -33 -29 -145 -41 -299 -7 -95 -9 -98 -83 -98 -31 0 -33
2 -27 28 4 15 9 138 13 274 l6 247 43 7 c48 7 64 1 64 -26 0 -14 7 -11 35 17
31 31 40 35 72 30 20 -4 41 -11 46 -16z"/>
<path d="M29536 22271 c-20 -21 -33 -122 -22 -165 10 -39 44 -34 62 9 17 42
19 146 2 163 -16 16 -22 15 -42 -7z"/>
<path d="M29113 22215 c-30 -21 -50 -91 -64 -223 -19 -180 -1 -262 58 -262 49
0 84 136 87 336 1 107 -1 124 -18 143 -23 25 -34 26 -63 6z"/>
<path d="M28624 22185 c-24 -37 -33 -92 -40 -250 -7 -166 4 -218 47 -223 62
-7 91 95 90 316 0 105 -3 139 -16 158 -21 32 -60 32 -81 -1z"/>
<path d="M29910 21899 c-18 -32 -25 -166 -11 -183 16 -19 35 -11 49 18 14 32
26 131 18 161 -8 31 -41 34 -56 4z"/>
<path d="M29096 21014 c-55 -20 -76 -42 -76 -79 0 -38 15 -55 50 -55 51 0 100
60 100 125 0 29 -15 31 -74 9z"/>
<path d="M28404 21171 c-27 -16 -54 -63 -54 -93 0 -5 35 -8 78 -6 l77 3 -1 39
c-1 28 -8 45 -24 58 -28 23 -38 22 -76 -1z"/>
<path d="M29342 20374 c-22 -15 -52 -63 -52 -84 0 -7 26 -10 78 -8 l77 3 -1
37 c-1 21 -7 44 -14 53 -16 19 -59 19 -88 -1z"/>
<path d="M28888 20357 c-26 -22 -48 -57 -48 -76 0 -16 150 -15 151 2 8 85 -45
123 -103 74z"/>
<path d="M32120 23199 c0 -5 5 -7 10 -4 6 3 10 8 10 11 0 2 -4 4 -10 4 -5 0
-10 -5 -10 -11z"/>
<path d="M32137 23151 c3 -11 -2 -21 -11 -24 -9 -4 -16 -17 -15 -29 0 -23 0
-23 9 -2 12 30 34 43 25 15 -4 -12 -2 -21 4 -21 6 0 11 8 11 18 0 27 -12 62
-20 62 -5 0 -6 -8 -3 -19z"/>
<path d="M32031 23124 c0 -11 3 -14 6 -6 3 7 2 16 -1 19 -3 4 -6 -2 -5 -13z"/>
<path d="M31956 23081 c-4 -5 -2 -12 3 -15 5 -4 12 -2 15 3 4 5 2 12 -3 15 -5
4 -12 2 -15 -3z"/>
<path d="M31876 23055 c-3 -8 -1 -15 4 -15 6 0 10 7 10 15 0 8 -2 15 -4 15 -2
0 -6 -7 -10 -15z"/>
<path d="M31653 23033 c-7 -2 -13 -9 -13 -15 0 -7 5 -7 13 1 8 6 17 8 20 4 4
-3 7 -1 7 5 0 13 -7 14 -27 5z"/>
<path d="M31720 23030 c0 -5 5 -10 11 -10 5 0 7 5 4 10 -3 6 -8 10 -11 10 -2
0 -4 -4 -4 -10z"/>
<path d="M31770 23022 c0 -4 9 -13 19 -19 16 -10 18 -9 14 8 -5 18 -33 28 -33
11z"/>
<path d="M31845 23020 c-4 -6 -11 -8 -16 -5 -5 4 -9 2 -9 -2 0 -5 9 -14 19
-20 17 -10 19 -9 17 13 -1 27 -2 28 -11 14z"/>
<path d="M31600 22974 c0 -8 5 -12 10 -9 6 4 8 11 5 16 -9 14 -15 11 -15 -7z"/>
<path d="M31716 22981 c-3 -5 1 -12 10 -15 22 -8 25 -4 9 11 -8 7 -16 9 -19 4z"/>
<path d="M31815 22980 c-3 -5 -2 -10 4 -10 5 0 13 5 16 10 3 6 2 10 -4 10 -5
0 -13 -4 -16 -10z"/>
<path d="M31555 22960 c4 -6 11 -8 16 -5 14 9 11 15 -7 15 -8 0 -12 -5 -9 -10z"/>
<path d="M31541 22934 c0 -11 3 -14 6 -6 3 7 2 16 -1 19 -3 4 -6 -2 -5 -13z"/>
<path d="M31596 22924 c12 -10 15 -17 8 -20 -13 -5 -7 -44 6 -44 4 0 8 10 7
23 0 12 3 29 7 37 5 12 0 16 -21 18 -26 2 -26 2 -7 -14z"/>
<path d="M31485 22880 c-3 -5 -1 -10 4 -10 6 0 11 5 11 10 0 6 -2 10 -4 10 -3
0 -8 -4 -11 -10z"/>
<path d="M31310 22860 c-6 -11 -8 -20 -6 -20 3 0 10 9 16 20 6 11 8 20 6 20
-3 0 -10 -9 -16 -20z"/>
<path d="M31410 22839 c0 -5 5 -7 10 -4 6 3 10 8 10 11 0 2 -4 4 -10 4 -5 0
-10 -5 -10 -11z"/>
<path d="M31266 22807 c3 -10 9 -15 12 -12 3 3 0 11 -7 18 -10 9 -11 8 -5 -6z"/>
<path d="M23140 22731 c-121 -39 -189 -130 -190 -250 0 -78 25 -135 77 -182
53 -46 99 -62 178 -63 160 -1 277 113 277 270 1 91 -44 163 -127 207 -44 22
-170 33 -215 18z"/>
<path d="M26129 22713 l-26 -4 -7 -137 c-13 -256 -25 -666 -31 -1027 -5 -307
-32 -989 -50 -1274 l-5 -84 212 7 c116 3 213 8 214 9 6 6 25 397 34 707 5 184
12 400 15 480 2 80 7 240 10 355 4 116 13 350 21 520 7 171 14 343 14 383 l0
72 -187 -1 c-104 -1 -200 -4 -214 -6z"/>
<path d="M16870 22465 c-440 -83 -749 -334 -875 -709 -49 -147 -58 -209 -58
-406 -1 -148 3 -206 20 -291 111 -557 555 -957 1130 -1020 245 -26 533 26 754
136 64 32 211 128 228 149 10 11 8 113 -9 478 -12 255 -23 469 -25 476 -3 9
-51 12 -195 12 -169 0 -191 -2 -197 -17 -6 -15 8 -379 24 -635 l6 -98 -74 -35
c-131 -61 -213 -78 -389 -79 -103 -1 -173 4 -210 13 -392 100 -652 451 -652
880 0 290 101 498 314 642 193 131 487 171 727 97 99 -30 230 -102 310 -169
39 -32 75 -59 80 -59 11 0 251 255 251 268 0 5 -24 31 -52 59 -151 142 -343
243 -563 294 -118 27 -431 36 -545 14z"/>
<path d="M24545 21984 c-91 -13 -161 -29 -257 -59 -134 -43 -219 -81 -297
-135 l-62 -41 59 -112 c33 -62 69 -131 81 -155 l22 -43 49 36 c106 78 263 133
400 141 41 2 91 7 111 9 55 7 188 -19 246 -48 105 -54 179 -184 171 -303 l-3
-49 -265 -7 c-371 -10 -483 -27 -635 -97 -166 -77 -272 -220 -297 -399 -31
-228 70 -421 275 -522 108 -53 201 -72 354 -71 241 1 404 59 524 184 l49 51 0
-103 0 -103 190 5 c105 2 192 6 194 8 2 2 7 103 10 224 4 121 9 254 11 295 18
310 26 580 21 659 -23 330 -179 529 -481 612 -66 17 -112 22 -260 24 -99 2
-193 1 -210 -1z m513 -1156 c-3 -90 -8 -110 -33 -162 -76 -149 -250 -234 -460
-223 -189 9 -288 87 -288 227 0 78 18 122 67 168 82 76 154 89 484 91 l233 1
-3 -102z"/>
<path d="M23089 21933 l-86 -4 -6 -676 c-4 -372 -7 -779 -7 -905 l0 -230 194
4 c107 2 197 5 199 8 9 9 28 712 34 1268 l6 542 -124 -2 c-68 -1 -163 -4 -210
-5z"/>
<path d="M21475 21910 c-117 -25 -251 -91 -331 -164 l-61 -55 -7 61 c-3 33 -6
83 -6 109 l0 49 -187 -6 c-104 -3 -192 -7 -198 -9 -7 -1 -8 -105 -4 -301 4
-165 7 -506 8 -759 1 -253 4 -524 8 -602 l6 -143 198 0 198 0 3 528 c4 511 5
529 27 602 67 225 224 340 469 340 203 0 334 -89 394 -269 22 -64 22 -80 26
-630 l3 -563 31 6 c17 3 109 6 205 6 l174 0 -3 613 c-4 595 -4 614 -26 692
-57 206 -170 354 -333 433 -123 61 -181 74 -354 78 -121 3 -167 0 -240 -16z"/>
<path d="M19145 21895 c-204 -45 -383 -155 -495 -302 -212 -279 -245 -682 -86
-1028 158 -341 562 -550 980 -507 251 26 436 107 565 247 38 41 41 48 29 63
-77 91 -201 233 -209 237 -5 4 -33 -15 -61 -40 -108 -97 -251 -147 -420 -147
-120 0 -180 13 -283 62 -126 61 -216 160 -261 289 l-23 66 157 6 c86 4 394 7
684 8 l527 1 7 47 c4 26 2 100 -4 164 -26 260 -119 460 -287 617 -117 109
-261 182 -427 216 -94 20 -307 20 -393 1z m340 -340 c145 -38 257 -130 324
-267 22 -46 43 -100 47 -120 l6 -38 -496 0 c-570 0 -513 -13 -472 109 56 165
167 272 329 316 70 18 189 18 262 0z"/>
<path d="M24237 18676 c-55 -20 -103 -61 -134 -114 -24 -41 -28 -57 -28 -127
0 -63 5 -89 22 -121 63 -119 221 -166 343 -104 52 27 115 101 130 154 7 25 11
76 8 115 -3 59 -9 77 -35 113 -45 63 -117 98 -202 98 -36 -1 -83 -7 -104 -14z"/>
<path d="M23340 18570 l-185 -5 -3 -457 c-1 -252 -5 -458 -8 -458 -3 0 -33 24
-65 54 -74 66 -151 108 -254 138 -111 31 -321 31 -440 0 -103 -28 -244 -98
-320 -159 -134 -109 -248 -289 -295 -468 -28 -105 -37 -283 -20 -411 47 -378
290 -679 617 -765 105 -28 319 -31 413 -6 112 30 224 91 306 169 l74 71 0
-112 0 -111 188 2 187 3 6 780 c4 429 10 997 14 1263 8 470 8 482 -11 480 -10
-1 -102 -5 -204 -8z m-555 -1075 c82 -22 142 -57 209 -123 103 -101 155 -242
155 -417 1 -318 -176 -541 -460 -580 -132 -19 -298 44 -397 149 -112 120 -158
258 -149 446 9 170 52 281 153 389 117 127 313 181 489 136z"/>
<path d="M16891 18378 c-335 -26 -571 -200 -647 -479 -21 -78 -24 -256 -5
-344 24 -110 82 -217 160 -294 135 -133 257 -185 709 -306 235 -62 299 -89
374 -158 142 -132 104 -356 -75 -441 -234 -110 -660 -43 -934 149 -36 25 -66
45 -67 43 -2 -2 -12 -34 -24 -73 -11 -38 -33 -110 -48 -160 -14 -49 -27 -93
-28 -97 -2 -12 105 -86 183 -126 293 -152 713 -192 999 -96 305 102 462 312
462 619 0 234 -93 412 -281 539 -71 48 -220 105 -405 156 -446 123 -481 136
-565 208 -64 55 -84 102 -84 202 0 102 19 146 91 208 101 89 301 123 510 87
114 -20 246 -64 358 -121 49 -24 90 -44 91 -44 5 0 36 93 71 209 43 143 48
128 -68 187 -221 112 -474 155 -777 132z"/>
<path d="M18461 18203 l-133 -4 6 -167 c4 -92 9 -184 12 -204 l6 -37 -139 -3
-138 -3 2 -30 c1 -16 5 -92 9 -167 l6 -138 134 0 c131 0 134 -1 138 -22 3 -13
16 -234 30 -493 17 -302 31 -493 41 -533 54 -226 196 -370 411 -418 110 -24
275 -16 367 18 84 32 147 73 147 96 0 10 -21 69 -46 132 -25 63 -50 125 -55
138 l-9 22 -57 -32 c-54 -31 -64 -33 -155 -33 -91 0 -99 2 -139 30 -50 35 -85
97 -99 175 -5 30 -16 197 -24 370 -9 173 -18 368 -21 433 l-6 117 225 0 226 0
0 93 c0 50 -3 129 -7 175 l-6 83 -222 -7 -223 -7 -6 109 c-3 60 -10 154 -14
209 l-7 100 -60 1 c-33 0 -120 -1 -194 -3z"/>
<path d="M25684 17925 c-136 -30 -255 -81 -366 -156 -181 -123 -324 -344 -375
-580 -27 -125 -24 -384 6 -494 97 -361 372 -587 741 -611 163 -11 328 19 468
86 104 50 161 88 241 164 145 139 228 303 278 552 25 131 23 362 -6 469 -78
294 -281 498 -561 565 -101 24 -327 26 -426 5z m368 -387 c116 -58 193 -154
230 -287 22 -81 24 -256 3 -356 -44 -211 -206 -393 -386 -434 -75 -18 -209
-13 -272 8 -107 37 -192 113 -248 223 -44 87 -59 158 -59 284 0 201 52 339
174 460 111 110 204 145 377 141 99 -2 110 -4 181 -39z"/>
<path d="M24273 17883 l-153 -4 -1 -97 c0 -53 -2 -106 -5 -117 -5 -28 -23
-1588 -18 -1597 5 -7 375 1 383 8 2 2 7 248 12 546 4 299 10 602 13 673 3 72
9 235 12 363 l7 232 -49 -2 c-27 -1 -118 -4 -201 -5z"/>
<path d="M20915 17820 c-4 -6 -3 -171 2 -368 14 -595 12 -694 -16 -781 -42
-136 -111 -218 -231 -275 -61 -29 -71 -31 -185 -31 -116 0 -123 1 -187 33 -76
37 -126 89 -164 170 -47 99 -53 160 -65 617 -6 237 -13 475 -17 530 l-7 100
-120 -1 c-66 0 -155 -1 -198 -2 l-78 -2 6 -177 c19 -575 37 -948 50 -1024 61
-362 257 -568 589 -620 221 -35 458 36 607 183 33 32 59 57 60 55 0 -1 2 -49
4 -105 2 -57 5 -106 8 -108 2 -2 86 -1 187 3 l183 6 -7 316 c-4 174 -11 451
-16 616 -5 165 -10 429 -10 588 l0 287 -194 0 c-124 0 -197 -4 -201 -10z"/>
<path d="M25722 15324 c4 -4 0 -13 -10 -20 -9 -7 -17 -21 -18 -31 -1 -10 -2
-33 -3 -51 -1 -24 -7 -35 -20 -39 -37 -9 -37 -63 0 -63 14 0 19 -7 19 -30 1
-16 1 -76 1 -132 1 -136 23 -178 94 -178 28 0 85 26 85 38 0 17 -26 32 -57 32
-28 0 -33 4 -41 33 -9 31 -6 208 3 235 2 6 18 12 35 12 35 0 49 22 29 46 -8
10 -21 13 -36 9 -28 -7 -31 1 -35 80 -3 55 -5 60 -28 63 -14 2 -22 1 -18 -4z
m18 -34 c0 -5 -4 -10 -10 -10 -5 0 -10 5 -10 10 0 6 5 10 10 10 6 0 10 -4 10
-10z m-10 -50 c0 -5 -2 -10 -4 -10 -3 0 -8 5 -11 10 -3 6 -1 10 4 10 6 0 11
-4 11 -10z"/>
<path d="M25090 15310 c0 -6 7 -10 15 -10 8 0 15 2 15 4 0 2 -7 6 -15 10 -8 3
-15 1 -15 -4z"/>
<path d="M24546 15291 c-3 -5 4 -11 16 -14 29 -8 32 -4 8 11 -10 6 -21 8 -24
3z"/>
<path d="M24630 15279 c0 -5 5 -7 10 -4 6 3 10 8 10 11 0 2 -4 4 -10 4 -5 0
-10 -5 -10 -11z"/>
<path d="M24691 15271 c-18 -14 -21 -20 -11 -26 8 -5 11 -4 6 3 -3 6 6 14 21
19 15 5 23 12 17 15 -5 4 -20 -2 -33 -11z"/>
<path d="M24760 15281 c0 -5 7 -12 16 -15 14 -5 15 -4 4 9 -14 17 -20 19 -20
6z"/>
<path d="M25084 15275 c24 -18 32 -19 39 -2 3 8 -6 13 -27 14 -29 2 -30 1 -12
-12z"/>
<path d="M24610 15249 c7 -11 14 -18 17 -15 8 8 -5 36 -17 36 -7 0 -7 -6 0
-21z"/>
<path d="M24850 15255 c-10 -12 -10 -15 4 -15 9 0 16 7 16 15 0 8 -2 15 -4 15
-2 0 -9 -7 -16 -15z"/>
<path d="M20550 15215 c-8 -9 -8 -15 -2 -15 12 0 26 19 19 26 -2 2 -10 -2 -17
-11z"/>
<path d="M20598 15219 c-10 -5 -18 -14 -18 -19 0 -14 28 -1 34 16 6 16 6 16
-16 3z"/>
<path d="M20475 15190 c3 -5 8 -10 11 -10 2 0 4 5 4 10 0 6 -5 10 -11 10 -5 0
-7 -4 -4 -10z"/>
<path d="M24540 15190 c0 -5 5 -10 11 -10 5 0 7 5 4 10 -3 6 -8 10 -11 10 -2
0 -4 -4 -4 -10z"/>
<path d="M24850 15190 c0 -5 7 -10 16 -10 8 0 12 5 9 10 -3 6 -10 10 -16 10
-5 0 -9 -4 -9 -10z"/>
<path d="M24905 15187 c-25 -27 -24 -34 5 -34 17 0 30 4 30 9 0 4 -4 8 -9 8
-5 0 -11 6 -13 14 -2 10 -6 11 -13 3z"/>
<path d="M20609 15177 c7 -7 14 -8 21 -1 6 6 2 10 -12 11 -16 2 -18 -1 -9 -10z"/>
<path d="M25371 15166 c-20 -24 -4 -41 40 -40 25 0 43 -4 46 -13 3 -7 11 -13
18 -13 11 0 25 -41 25 -76 0 -8 -10 -14 -23 -14 -13 0 -29 -6 -36 -12 -11 -10
-13 -10 -7 0 5 8 0 12 -13 12 -11 0 -25 -8 -30 -17 -6 -10 -11 -12 -11 -5 0
17 -51 15 -64 -3 -8 -12 -18 -13 -43 -6 -17 5 -34 7 -37 3 -11 -11 -6 -22 11
-22 13 0 14 -3 5 -12 -26 -26 -11 -80 36 -130 32 -35 114 -54 169 -39 44 13
65 25 64 37 -1 5 5 9 11 9 16 0 41 51 33 65 -11 17 -29 11 -69 -25 -31 -29
-46 -35 -82 -35 -31 0 -50 6 -64 20 -11 11 -25 20 -31 20 -6 0 -8 8 -5 18 3 9
1 24 -4 32 -9 13 -11 13 -20 0 -7 -11 -10 -11 -10 -2 0 7 -4 10 -10 7 -5 -3
-10 -1 -10 5 0 7 7 10 15 6 8 -3 15 -1 15 4 0 6 9 10 19 10 11 0 23 4 26 10 3
5 25 7 50 3 32 -4 51 -1 69 11 18 11 27 13 32 4 4 -6 3 -8 -4 -4 -6 3 -13 2
-17 -4 -8 -13 45 -13 78 -1 19 7 26 19 29 48 6 50 -11 96 -34 90 -11 -3 -15 0
-11 8 6 18 -35 58 -52 51 -8 -3 -17 -1 -20 4 -12 20 -25 9 -19 -15 4 -16 2
-25 -6 -25 -7 0 -10 6 -7 14 11 29 -31 47 -52 22z m24 -16 c3 -5 1 -10 -4 -10
-6 0 -11 5 -11 10 0 6 2 10 4 10 3 0 8 -4 11 -10z m155 -120 c0 -5 -4 -10 -10
-10 -5 0 -10 5 -10 10 0 6 5 10 10 10 6 0 10 -4 10 -10z m-25 -50 c3 -5 1 -10
-4 -10 -6 0 -11 5 -11 10 0 6 2 10 4 10 3 0 8 -4 11 -10z m-258 -76 c-3 -4 -1
-16 5 -28 10 -19 10 -20 -5 -7 -19 16 -23 41 -5 41 6 0 8 -3 5 -6z m158 -104
c3 -5 1 -10 -4 -10 -6 0 -11 5 -11 10 0 6 2 10 4 10 3 0 8 -4 11 -10z"/>
<path d="M24566 15161 c-4 -5 3 -7 14 -4 25 7 26 -5 3 -23 -16 -12 -16 -13 -2
-14 18 0 33 26 23 41 -7 12 -31 12 -38 0z"/>
<path d="M25077 15149 c-19 -22 -22 -56 -6 -61 8 -3 9 -10 2 -23 -6 -11 -10
-44 -9 -72 1 -29 -2 -53 -5 -53 -4 0 -6 -34 -5 -75 1 -55 5 -79 18 -91 14 -14
20 -15 32 -4 22 17 20 36 -1 19 -17 -13 -17 -13 -3 6 8 11 19 23 23 26 5 3 5
17 2 31 -5 20 -11 24 -32 20 -29 -5 -26 5 10 46 22 24 36 132 18 132 -5 0 -8
-11 -5 -25 3 -20 0 -25 -16 -25 -24 0 -25 9 -6 35 8 11 13 24 12 30 -2 5 -1 7
1 3 8 -14 23 -9 23 7 0 8 -4 15 -10 15 -5 0 -10 5 -10 11 0 5 5 7 10 4 6 -3
10 5 10 19 0 36 -31 51 -53 25z m23 -39 c0 -5 -7 -10 -16 -10 -8 0 -12 5 -9
10 3 6 10 10 16 10 5 0 9 -4 9 -10z m-7 -145 c-3 -9 -8 -14 -10 -11 -3 3 -2 9
2 15 9 16 15 13 8 -4z m27 -15 c0 -5 -5 -10 -11 -10 -5 0 -7 5 -4 10 3 6 8 10
11 10 2 0 4 -4 4 -10z m-42 -40 c-7 -10 -14 -17 -17 -15 -4 4 18 35 25 35 2 0
-1 -9 -8 -20z m2 -60 c0 -5 -5 -10 -11 -10 -5 0 -7 5 -4 10 3 6 8 10 11 10 2
0 4 -4 4 -10z"/>
<path d="M25327 15159 c-9 -6 -15 -14 -12 -20 4 -5 -2 -6 -11 -2 -13 5 -16 3
-11 -10 3 -9 2 -16 -2 -14 -5 1 -9 -2 -9 -7 0 -5 -6 -13 -14 -17 -11 -7 -11
-9 1 -9 8 0 11 -6 7 -16 -4 -10 -1 -14 6 -11 7 2 13 12 13 22 0 10 6 20 14 23
8 3 11 0 7 -7 -12 -19 6 -12 25 11 21 23 21 25 11 50 -5 13 -11 14 -25 7z"/>
<path d="M24525 15150 c-3 -5 -1 -10 4 -10 6 0 11 5 11 10 0 6 -2 10 -4 10 -3
0 -8 -4 -11 -10z"/>
<path d="M24856 15135 c8 -37 14 -45 14 -19 0 10 -5 26 -10 34 -8 11 -9 7 -4
-15z"/>
<path d="M24910 15130 c0 -5 7 -10 16 -10 8 0 12 5 9 10 -3 6 -10 10 -16 10
-5 0 -9 -4 -9 -10z"/>
<path d="M24526 15104 c-5 -14 -4 -15 9 -4 17 14 19 20 6 20 -5 0 -12 -7 -15
-16z"/>
<path d="M24570 15100 c0 -5 5 -10 11 -10 5 0 7 5 4 10 -3 6 -8 10 -11 10 -2
0 -4 -4 -4 -10z"/>
<path d="M24890 15082 c0 -10 -5 -23 -12 -30 -8 -8 -8 -15 1 -26 10 -12 9 -16
-6 -25 -14 -8 -16 -12 -5 -22 10 -11 12 -10 12 4 0 9 5 17 10 17 12 0 12 -2 0
-36 -9 -23 -9 -25 4 -15 9 7 14 18 13 24 -1 7 8 11 19 10 17 -2 22 3 22 22 0
23 -2 23 -24 8 -21 -14 -24 -14 -24 0 0 8 6 17 13 20 6 2 8 8 4 13 -4 5 -12 2
-17 -6 -5 -8 -13 -11 -17 -6 -4 4 2 16 15 26 25 21 29 40 7 40 -8 0 -15 -8
-15 -18z"/>
<path d="M24936 15085 c4 -8 8 -15 10 -15 2 0 4 7 4 15 0 8 -4 15 -10 15 -5 0
-7 -7 -4 -15z"/>
<path d="M20756 15064 c-5 -12 -2 -15 10 -10 8 3 18 6 20 6 3 0 2 5 -1 10 -9
15 -22 12 -29 -6z"/>
<path d="M20868 15063 c-15 -4 -26 -23 -14 -23 2 0 11 -2 18 -5 9 -4 14 2 15
15 1 11 1 19 0 19 -1 -1 -10 -3 -19 -6z"/>
<path d="M20920 15051 c13 -26 27 -34 35 -21 3 5 1 10 -4 10 -6 0 -11 7 -11
15 0 8 -7 15 -15 15 -12 0 -14 -4 -5 -19z"/>
<path d="M24542 15050 c-7 -11 -8 -20 -3 -20 9 0 24 30 18 36 -1 2 -8 -6 -15
-16z"/>
<path d="M25246 15036 c-7 -30 0 -49 17 -43 7 2 20 0 30 -5 12 -6 17 -5 17 7
0 8 -5 15 -11 15 -8 0 -7 6 2 16 12 14 11 16 -6 12 -11 -2 -25 3 -31 11 -9 12
-12 9 -18 -13z"/>
<path d="M20812 15041 c-10 -6 -7 -10 11 -13 18 -4 24 -1 20 9 -6 15 -13 16
-31 4z"/>
<path d="M20740 15030 c0 -5 5 -10 11 -10 5 0 7 5 4 10 -3 6 -8 10 -11 10 -2
0 -4 -4 -4 -10z"/>
<path d="M20776 15026 c4 -10 -3 -16 -22 -18 -15 -2 -29 -9 -30 -16 -1 -7 0
-8 3 -2 2 5 19 10 36 9 29 0 30 -1 10 -9 -33 -13 -28 -26 10 -27 17 -1 26 1
18 4 -11 4 -8 10 10 25 24 19 24 19 2 13 -19 -5 -23 -2 -23 14 0 12 -4 21 -10
21 -5 0 -7 -6 -4 -14z"/>
<path d="M21025 15030 c-3 -5 -1 -10 4 -10 6 0 11 5 11 10 0 6 -2 10 -4 10 -3
0 -8 -4 -11 -10z"/>
<path d="M24207 15026 c-3 -8 2 -16 14 -19 15 -4 18 -2 10 7 -6 7 -8 16 -4 19
3 4 2 7 -4 7 -6 0 -13 -6 -16 -14z"/>
<path d="M24192 14970 c-10 -17 -10 -20 5 -20 9 0 13 3 10 7 -4 3 1 12 11 19
14 11 14 13 2 14 -8 0 -21 -9 -28 -20z"/>
<path d="M20545 14970 c3 -5 11 -10 16 -10 6 0 7 5 4 10 -3 6 -11 10 -16 10
-6 0 -7 -4 -4 -10z"/>
<path d="M24070 14960 c0 -5 5 -10 10 -10 6 0 10 5 10 10 0 6 -4 10 -10 10 -5
0 -10 -4 -10 -10z"/>
<path d="M20720 14950 c0 -7 24 -20 36 -20 13 0 1 19 -16 23 -11 3 -20 2 -20
-3z"/>
<path d="M24580 14950 c0 -5 5 -10 11 -10 5 0 7 5 4 10 -3 6 -8 10 -11 10 -2
0 -4 -4 -4 -10z"/>
<path d="M20773 14924 c-3 -8 -1 -20 6 -27 8 -8 11 -8 11 0 0 6 3 18 6 27 3 9
1 16 -5 16 -7 0 -14 -7 -18 -16z"/>
<path d="M24860 14932 c1 -18 17 -29 34 -22 20 7 16 12 -16 23 -10 4 -18 3
-18 -1z"/>
<path d="M20724 14915 c3 -9 6 -32 6 -51 0 -23 4 -33 11 -28 6 3 8 15 6 26 -4
15 -1 18 16 14 12 -3 16 -3 10 0 -7 3 -13 11 -13 17 0 7 -10 18 -21 26 -19 11
-21 11 -15 -4z"/>
<path d="M24575 14920 c3 -5 1 -10 -4 -10 -6 0 -11 -5 -11 -11 0 -8 5 -8 15 1
17 14 20 30 4 30 -5 0 -7 -4 -4 -10z"/>
<path d="M24920 14909 c0 -5 5 -7 10 -4 6 3 10 8 10 11 0 2 -4 4 -10 4 -5 0
-10 -5 -10 -11z"/>
<path d="M23930 14906 c0 -2 7 -6 15 -10 8 -3 15 -1 15 4 0 6 -7 10 -15 10 -8
0 -15 -2 -15 -4z"/>
<path d="M25103 14903 c-21 -8 -15 -22 7 -16 11 3 20 9 20 14 0 10 -8 10 -27
2z"/>
<path d="M24590 14878 c-12 -22 -12 -22 6 -6 10 10 15 20 12 24 -4 3 -12 -5
-18 -18z"/>
<path d="M24890 14878 c0 -15 -37 -18 -58 -5 -17 12 -25 -14 -12 -44 10 -24
10 -24 5 4 -6 30 9 36 24 10 10 -17 10 -17 11 0 0 20 11 22 29 5 11 -10 13
-10 7 0 -5 7 -1 12 9 12 9 0 15 5 13 12 -6 17 -28 22 -28 6z"/>
<path d="M23940 14870 c-9 -6 -10 -10 -3 -10 6 0 15 5 18 10 8 12 4 12 -15 0z"/>
<path d="M20770 14853 c0 -15 29 -49 30 -35 0 7 -7 20 -15 28 -8 9 -15 11 -15
7z"/>
<path d="M24782 14831 c1 -13 -3 -26 -9 -28 -7 -3 -13 2 -13 11 0 10 -9 16
-22 16 -18 0 -23 -6 -23 -25 0 -28 12 -33 22 -9 6 15 8 15 21 -2 10 -14 16
-15 19 -6 4 10 8 10 19 1 7 -6 19 -9 26 -6 8 4 7 6 -4 6 -10 1 -19 8 -19 16
-3 29 -4 33 -12 42 -5 4 -7 -3 -5 -16z"/>
<path d="M20742 14818 c-7 -7 -12 -17 -12 -22 0 -6 5 -5 12 2 17 17 29 15 22
-3 -4 -8 -1 -15 5 -15 15 0 14 25 -2 39 -10 8 -17 7 -25 -1z"/>
<path d="M23727 14823 c-12 -11 -8 -23 8 -23 8 0 15 7 15 15 0 16 -12 20 -23
8z"/>
<path d="M24590 14823 c0 -9 29 -33 39 -33 19 0 11 15 -14 27 -14 6 -25 9 -25
6z"/>
<path d="M24660 14809 c0 -4 6 -12 14 -18 11 -9 15 -7 19 8 3 15 0 19 -14 18
-11 -1 -19 -4 -19 -8z"/>
<path d="M24840 14810 c0 -5 5 -10 10 -10 6 0 10 5 10 10 0 6 -4 10 -10 10 -5
0 -10 -4 -10 -10z"/>
<path d="M24181 14794 c0 -11 3 -14 6 -6 3 7 2 16 -1 19 -3 4 -6 -2 -5 -13z"/>
<path d="M24586 14787 c3 -10 9 -15 12 -12 3 3 0 11 -7 18 -10 9 -11 8 -5 -6z"/>
<path d="M24030 14779 c0 -5 5 -7 10 -4 6 3 10 8 10 11 0 2 -4 4 -10 4 -5 0
-10 -5 -10 -11z"/>
<path d="M24155 14770 c-3 -5 -1 -10 4 -10 6 0 11 5 11 10 0 6 -2 10 -4 10 -3
0 -8 -4 -11 -10z"/>
<path d="M20750 14760 c0 -11 22 -18 38 -13 20 8 14 18 -13 19 -14 1 -25 -2
-25 -6z"/>
<path d="M20736 14732 c-2 -4 4 -9 15 -9 11 -1 17 2 14 8 -7 11 -22 12 -29 1z"/>
<path d="M20760 14696 c7 -7 14 -6 21 1 9 9 7 12 -9 10 -14 -1 -18 -5 -12 -11z"/>
<path d="M15633 11406 c0 -18 3 -24 9 -18 7 7 7 16 0 28 -8 14 -9 13 -9 -10z"/>
<path d="M15635 11341 c-3 -5 -1 -12 5 -16 5 -3 10 1 10 9 0 18 -6 21 -15 7z"/>
<path d="M15633 11296 c3 -8 2 -29 -3 -45 -5 -17 -6 -31 -2 -31 4 0 8 -30 8
-68 2 -103 3 -112 13 -112 6 0 8 27 5 63 -3 34 -6 95 -6 135 -1 39 -6 72 -11
72 -5 0 -7 -6 -4 -14z"/>
<path d="M15649 11023 c0 -5 0 -33 1 -63 2 -60 15 -87 22 -46 3 14 2 23 -3 20
-4 -2 -6 18 -4 46 2 27 -1 50 -6 50 -5 0 -9 -3 -10 -7z"/>
<path d="M15676 10833 c-6 -14 -5 -15 5 -6 7 7 10 15 7 18 -3 3 -9 -2 -12 -12z"/>
<path d="M15517 4133 c-3 -15 -9 -84 -12 -153 -4 -68 -8 -131 -10 -140 -1 -8
-6 -60 -10 -116 l-7 -101 78 -6 c183 -16 251 -5 291 47 41 52 38 146 -7 194
-25 26 -25 24 6 69 52 76 15 186 -70 212 -17 5 -81 12 -143 16 l-111 7 -5 -29z
m242 -87 c26 -24 28 -77 4 -99 -20 -17 -35 -20 -115 -18 l-58 1 0 71 0 71 74
-4 c55 -2 80 -8 95 -22z m1 -225 c34 -25 39 -80 9 -107 -18 -16 -35 -19 -105
-18 -46 0 -87 4 -90 7 -3 3 -3 38 1 77 l7 71 77 -7 c48 -4 85 -12 101 -23z"/>
<path d="M17047 4099 c-23 -14 -56 -85 -57 -121 0 -22 -5 -27 -27 -30 -23 -2
-29 -8 -31 -35 -3 -27 0 -32 26 -38 l29 -6 -5 -163 -5 -163 32 -5 c18 -3 34
-1 38 4 3 5 8 80 12 166 l6 157 48 3 c46 3 47 4 47 38 0 34 0 34 -45 34 -44 0
-45 1 -45 33 0 51 20 71 63 64 32 -5 36 -3 48 25 10 25 10 31 -2 39 -19 12
-110 11 -132 -2z"/>
<path d="M15977 4003 c-2 -4 -8 -75 -11 -158 -6 -133 -5 -154 11 -184 38 -73
114 -98 183 -62 22 11 41 19 41 16 1 -3 2 -11 3 -17 0 -8 15 -13 36 -13 l35 0
12 170 c17 258 20 235 -27 235 l-40 0 -1 -57 c0 -32 -4 -93 -8 -136 -7 -66
-13 -83 -37 -108 -35 -37 -76 -38 -111 -3 l-25 25 7 145 c7 140 7 144 -13 144
-11 0 -27 3 -35 6 -8 3 -17 2 -20 -3z"/>
<path d="M16370 3968 c0 -7 27 -103 60 -213 59 -198 59 -199 42 -230 -13 -22
-27 -31 -51 -33 -19 -2 -38 1 -44 7 -17 17 -25 13 -42 -19 -15 -30 -15 -30 17
-50 68 -41 135 -15 177 69 26 51 191 444 191 454 0 8 -42 16 -55 10 -8 -2 -39
-70 -71 -151 -51 -131 -58 -143 -70 -127 -8 10 -14 25 -14 33 0 8 -9 45 -19
81 -11 36 -27 92 -35 124 -16 55 -18 57 -51 57 -21 0 -35 -5 -35 -12z"/>
<path d="M17280 3873 c0 -37 -3 -132 -7 -211 l-6 -143 39 3 39 3 6 115 c4 63
7 120 8 127 3 26 54 73 87 79 35 6 50 31 42 71 -4 23 -49 20 -95 -7 -32 -19
-32 -18 -35 3 -2 17 -11 23 -40 25 l-38 3 0 -68z"/>
<path d="M17625 3904 c-120 -67 -132 -294 -20 -379 38 -30 117 -44 169 -31 39
10 87 56 109 105 27 62 26 163 -2 219 -34 66 -82 96 -160 99 -47 2 -74 -1 -96
-13z m143 -80 c33 -23 52 -67 52 -119 0 -57 -21 -100 -60 -120 -43 -22 -76
-18 -111 13 -27 24 -33 37 -37 85 -5 65 9 109 46 137 30 24 79 26 110 4z"/>
<path d="M18006 3899 c-2 -8 -7 -105 -10 -216 l-7 -203 41 0 c31 0 40 4 41 18
5 143 18 254 33 277 36 55 114 56 142 3 12 -24 16 -61 15 -169 l-2 -139 35 0
c41 0 42 3 50 161 6 137 35 184 108 177 20 -2 38 -13 51 -30 18 -24 19 -41 18
-172 l-2 -146 39 0 40 0 7 141 c9 167 -1 214 -52 259 -47 42 -120 42 -184 1
-45 -28 -46 -28 -58 -9 -15 25 -70 48 -113 48 -18 0 -50 -9 -71 -20 l-37 -20
0 20 c0 14 -7 20 -24 20 -13 0 -31 3 -40 6 -9 3 -18 0 -20 -7z"/>
<path d="M15340 3298 c0 -7 15 -85 34 -173 18 -88 37 -177 40 -198 7 -38 8
-38 49 -35 l42 3 49 127 c28 70 51 126 53 124 2 -2 16 -61 31 -132 26 -118 30
-130 54 -138 14 -5 32 -6 40 -3 12 4 168 369 168 391 0 10 -61 11 -69 2 -4 -6
-30 -67 -57 -136 -26 -69 -49 -127 -51 -129 -7 -10 -13 12 -40 144 l-29 140
-35 3 -34 3 -54 -142 c-30 -78 -56 -138 -58 -133 -2 5 -15 72 -31 149 l-28
140 -37 3 c-25 2 -37 -1 -37 -10z"/>
<path d="M18700 3281 c-15 -29 -12 -67 6 -85 48 -49 128 21 90 79 -21 32 -80
35 -96 6z"/>
<path d="M21277 3269 c-33 -25 -35 -66 -7 -97 25 -27 51 -28 78 -4 31 25 37
64 15 89 -28 32 -56 36 -86 12z"/>
<path d="M22561 3264 c-12 -15 -21 -32 -21 -39 0 -24 41 -65 66 -65 57 0 87
83 42 114 -33 23 -64 19 -87 -10z"/>
<path d="M19355 3269 c-9 -13 -27 -578 -19 -590 3 -5 22 -9 43 -9 35 0 39 3
45 31 3 17 6 86 7 153 0 66 4 184 8 261 5 77 6 146 4 153 -6 15 -79 16 -88 1z"/>
<path d="M15915 3243 c4 -16 18 -80 32 -143 14 -63 31 -141 38 -173 7 -32 15
-60 18 -63 2 -3 20 -7 40 -11 35 -5 35 -5 56 53 49 134 85 214 91 202 4 -7 20
-70 36 -140 28 -125 30 -128 57 -129 15 -1 32 -2 38 -3 11 -1 158 355 159 382
0 9 -10 12 -31 10 -31 -3 -33 -7 -85 -138 -29 -74 -56 -135 -61 -135 -4 0 -22
62 -38 138 -31 139 -40 157 -81 157 -18 0 -29 -20 -74 -140 -29 -77 -55 -140
-59 -140 -3 0 -19 62 -35 138 -15 75 -33 143 -38 150 -6 6 -24 12 -40 12 -28
0 -30 -2 -23 -27z"/>
<path d="M21047 3253 c-2 -5 -3 -33 -1 -63 1 -30 0 -74 -3 -97 l-5 -41 -34 20
c-41 24 -129 26 -171 4 -73 -38 -113 -112 -113 -208 1 -102 50 -183 127 -209
46 -15 138 -7 161 14 24 22 29 21 35 -3 4 -16 14 -20 45 -20 39 0 39 0 46 46
3 26 6 163 6 305 l0 259 -44 0 c-25 0 -47 -3 -49 -7z m-59 -269 c73 -51 68
-190 -8 -229 -49 -25 -88 -19 -126 19 -31 31 -34 40 -34 91 0 62 24 109 64
125 34 14 80 11 104 -6z"/>
<path d="M16500 3215 c1 -5 22 -98 49 -205 l48 -195 39 -3 39 -3 50 131 c27
71 53 130 57 130 8 0 9 -3 44 -150 15 -63 33 -118 38 -122 6 -4 24 -8 39 -8
25 0 31 7 53 57 34 77 124 318 124 333 0 7 -13 10 -32 8 -32 -3 -33 -5 -84
-141 -28 -76 -54 -140 -57 -144 -3 -3 -8 5 -11 18 -28 127 -59 248 -66 267 -8
19 -17 23 -42 20 -30 -3 -33 -6 -78 -128 -25 -69 -51 -134 -57 -144 -9 -17
-11 -16 -21 15 -6 19 -20 79 -32 134 -12 55 -24 107 -26 116 -5 19 -74 32 -74
14z"/>
<path d="M19950 3140 c0 -49 -1 -50 -30 -50 -28 0 -30 -2 -30 -39 0 -36 3 -40
28 -43 l27 -3 0 -120 c0 -66 4 -131 9 -145 23 -68 99 -104 171 -80 36 12 41
23 29 67 -6 20 -11 22 -44 17 -58 -9 -70 15 -70 148 l0 107 53 3 52 3 3 43 3
42 -50 0 -51 0 0 50 0 50 -50 0 -50 0 0 -50z"/>
<path d="M17357 3149 c-57 -30 -89 -86 -95 -168 -4 -58 -1 -77 18 -116 42 -87
151 -130 224 -87 42 25 49 18 35 -31 -21 -77 -102 -99 -195 -52 l-49 25 -17
-21 c-25 -29 -22 -44 10 -67 71 -50 200 -59 262 -18 68 44 74 75 96 424 l7
112 -26 0 c-14 0 -32 3 -41 6 -12 5 -16 0 -16 -22 l0 -27 -22 21 c-50 46 -128
54 -191 21z m137 -73 c34 -14 66 -65 66 -105 0 -61 -56 -131 -105 -131 -32 0
-86 33 -100 61 -32 60 -6 151 49 175 40 17 49 17 90 0z"/>
<path d="M17842 3119 c-53 -27 -78 -58 -97 -122 -48 -160 31 -286 180 -287 50
0 136 33 142 55 1 6 -6 21 -17 35 -19 25 -19 25 -48 7 -62 -36 -146 -14 -175
45 l-16 33 144 3 145 3 0 52 c0 56 -25 121 -56 149 -29 25 -89 48 -126 48 -18
0 -52 -10 -76 -21z m136 -75 c30 -21 57 -73 44 -86 -6 -6 -46 -7 -106 -3 -110
8 -117 16 -62 71 38 38 85 45 124 18z"/>
<path d="M18382 3119 c-23 -5 -52 -15 -64 -23 -30 -21 -41 -20 -33 4 6 18 2
20 -32 20 l-39 0 -13 -200 c-6 -110 -9 -205 -6 -210 3 -6 21 -10 40 -10 40 0
42 6 48 161 5 112 22 153 75 170 39 13 87 -2 103 -33 6 -11 10 -77 9 -151 -1
-73 -1 -138 -1 -144 1 -8 16 -13 41 -13 22 0 40 1 41 3 8 18 14 284 7 318 -16
82 -84 124 -176 108z"/>
<path d="M18695 3108 c-9 -26 -23 -403 -15 -412 14 -15 80 -18 84 -4 3 7 9
103 15 212 9 160 9 201 -1 208 -20 12 -78 9 -83 -4z"/>
<path d="M18962 3102 c-72 -26 -76 -32 -58 -76 17 -40 20 -41 56 -21 14 8 48
14 77 15 44 0 55 -4 72 -26 12 -15 21 -35 21 -45 0 -17 -8 -19 -67 -19 -38 0
-85 -5 -105 -10 -118 -33 -119 -202 -1 -240 44 -15 118 -8 142 14 23 21 31 20
31 -4 0 -17 7 -20 39 -20 l40 0 6 53 c4 29 5 109 3 177 -3 113 -5 128 -27 156
-29 39 -57 52 -124 59 -37 4 -68 0 -105 -13z m166 -270 c2 -14 -7 -33 -27 -52
-36 -37 -90 -41 -121 -10 -23 23 -25 40 -7 62 17 23 35 27 97 25 49 -2 55 -5
58 -25z"/>
<path d="M22973 3109 c-23 -4 -53 -15 -66 -24 -23 -15 -25 -15 -30 5 -5 18
-12 21 -49 18 l-43 -3 -3 -185 c-2 -102 0 -200 3 -218 6 -32 8 -33 48 -30 l42
3 5 135 c6 173 20 198 109 202 75 3 91 -36 91 -214 l0 -118 46 0 46 0 -4 168
c-3 156 -5 169 -26 200 -39 54 -97 75 -169 61z"/>
<path d="M19633 3101 c-93 -24 -138 -113 -98 -191 19 -37 53 -55 132 -70 34
-7 69 -21 78 -30 15 -17 15 -20 -5 -40 -20 -20 -30 -22 -82 -17 -32 3 -70 13
-85 22 -31 20 -49 8 -59 -41 -6 -29 -3 -32 38 -48 100 -41 207 -29 265 29 28
28 33 40 33 79 0 67 -34 102 -125 126 -99 26 -105 29 -105 56 0 43 69 56 145
29 38 -14 41 -13 57 8 27 34 22 56 -16 72 -44 19 -132 26 -173 16z"/>
<path d="M20256 3091 c-3 -4 -7 -77 -8 -162 -3 -173 6 -209 66 -252 44 -32
142 -31 185 1 30 22 31 22 31 2 0 -17 6 -20 45 -20 36 0 45 3 45 18 0 9 3 106
7 215 l6 197 -51 0 -52 0 0 -127 c0 -152 -13 -189 -72 -211 -30 -12 -41 -12
-64 0 -47 22 -55 50 -53 188 0 69 0 133 0 143 -1 13 -10 17 -40 17 -22 0 -42
-4 -45 -9z"/>
<path d="M21597 3090 c-44 -13 -95 -57 -119 -103 -27 -52 -30 -175 -6 -222 37
-70 112 -115 190 -115 129 1 208 88 208 229 -1 150 -133 253 -273 211z m134
-118 c57 -51 56 -154 -1 -205 -29 -26 -38 -29 -79 -24 -53 6 -86 38 -97 92
-23 126 90 215 177 137z"/>
<path d="M21927 3093 l-28 -4 66 -94 c36 -52 68 -100 71 -109 3 -8 -23 -56
-60 -113 -36 -54 -66 -104 -66 -110 0 -9 15 -13 44 -13 43 0 45 1 92 70 26 39
51 70 55 70 4 0 26 -29 50 -65 l44 -64 53 -1 c28 0 52 3 52 6 0 3 -32 52 -72
109 l-71 104 66 101 c37 55 67 105 67 110 0 7 -19 10 -47 8 -46 -3 -49 -5 -91
-65 -24 -35 -47 -63 -52 -63 -4 0 -23 23 -41 52 -19 28 -36 54 -39 58 -7 11
-60 18 -93 13z"/>
<path d="M22560 2899 c1 -111 4 -208 7 -215 3 -9 21 -14 49 -14 l44 0 0 215 0
215 -50 0 -51 0 1 -201z"/>
<path d="M21262 2873 l3 -218 45 0 45 0 5 201 c3 111 4 209 2 218 -3 12 -15
16 -53 16 l-49 0 2 -217z"/>
<path d="M17100 2871 c-18 -34 -12 -78 12 -95 29 -20 34 -20 58 4 24 24 26 72
4 94 -21 22 -61 20 -74 -3z"/>
<path d="M22385 2788 c-28 -16 -35 -28 -35 -65 0 -39 23 -63 60 -63 34 0 60
31 60 70 0 49 -46 80 -85 58z"/>
<path d="M28115 2053 c-71 -17 -155 -47 -155 -55 0 -6 8 -7 18 -3 9 4 67 20
127 35 82 21 100 28 70 28 -22 0 -49 -2 -60 -5z"/>
<path d="M23625 2012 c-48 -2 -82 -8 -87 -15 -6 -9 -8 -8 -8 2 0 11 -11 12
-52 7 -42 -5 -341 -16 -466 -16 -16 0 -21 -4 -15 -13 4 -7 -2 -6 -17 4 -32 19
-88 23 -108 7 -12 -10 -14 -10 -8 0 5 8 -1 12 -21 13 -15 1 -32 1 -36 0 -38
-7 -68 -7 -72 -1 -7 11 -75 11 -75 0 0 -6 5 -10 11 -10 5 0 7 -5 4 -11 -5 -7
-14 -5 -29 4 -18 12 -23 12 -34 0 -7 -7 -18 -10 -24 -7 -6 4 -36 9 -65 10 -39
2 -52 0 -46 -9 5 -9 3 -9 -8 -1 -8 7 -52 10 -114 8 -176 -6 -213 -10 -230 -24
-12 -10 -18 -11 -24 -2 -9 16 -178 13 -192 -4 -7 -9 -5 -15 8 -23 24 -14 8
-14 -18 0 -12 6 -17 15 -12 22 4 7 -5 4 -20 -6 -26 -17 -27 -17 -27 1 0 14 -7
19 -29 19 -22 0 -27 -4 -24 -17 3 -10 -3 -20 -12 -24 -12 -4 -16 -2 -12 7 4
10 -6 13 -44 11 -26 -2 -51 1 -54 6 -9 15 -82 12 -88 -2 -4 -10 -6 -10 -6 0
-1 18 -51 15 -51 -3 0 -9 -6 -12 -15 -9 -8 4 -12 10 -9 15 3 6 -37 7 -98 4
-57 -2 -186 -7 -288 -10 -102 -3 -228 -7 -280 -10 -52 -3 -169 -7 -259 -10
-90 -3 -167 -7 -170 -10 -21 -12 -1743 -22 -2036 -11 -121 5 -217 5 -213 1 9
-10 31 -12 213 -19 205 -9 563 -16 780 -16 105 0 201 0 215 0 62 0 677 1 690
1 8 0 43 -1 78 -3 35 -2 66 0 69 5 3 5 11 6 19 3 8 -3 14 0 14 7 0 7 3 8 8 2
10 -14 105 -14 114 -1 6 8 8 7 8 -1 0 -6 12 -12 28 -12 15 -1 34 -2 42 -2 8 0
44 0 80 1 36 1 95 -1 133 -5 42 -3 67 -2 67 5 0 5 -8 10 -17 11 -12 0 -13 2
-5 6 7 3 18 1 25 -5 7 -5 68 -9 137 -8 69 1 130 -2 137 -7 7 -5 18 -5 25 -1
17 11 148 13 168 4 8 -4 42 -4 75 1 33 4 61 4 63 0 3 -9 61 1 82 14 8 5 11 4
7 -1 -3 -6 50 -10 131 -10 75 0 150 -4 166 -8 l30 -7 -25 20 c-13 11 -18 20
-11 21 6 0 12 -5 12 -11 0 -6 6 -9 12 -7 7 3 19 -2 26 -9 8 -8 19 -10 26 -5 6
4 36 7 66 6 30 0 65 3 78 7 13 5 21 5 18 1 -2 -4 21 -7 52 -7 31 0 67 -3 80
-7 15 -5 21 -4 17 2 -8 14 38 13 52 -1 7 -7 22 -8 44 -2 19 5 125 9 237 8 111
0 202 4 202 8 0 5 5 5 10 2 6 -4 32 -9 58 -12 26 -2 49 -6 51 -9 2 -2 12 1 22
7 11 5 19 6 19 2 0 -10 37 -9 63 2 10 4 24 2 32 -5 8 -6 18 -9 22 -7 5 3 30 8
55 11 37 4 49 2 56 -10 8 -14 10 -15 15 -1 4 11 16 14 41 11 19 -2 38 1 41 6
4 6 11 8 16 4 5 -3 7 -10 4 -15 -3 -5 1 -6 9 -3 9 3 13 11 9 18 -3 6 2 4 13
-5 14 -13 33 -16 74 -13 30 3 61 6 68 9 6 2 12 0 12 -5 0 -6 19 -8 48 -4 38 5
177 8 177 4 0 0 33 -2 73 -3 39 -1 72 2 72 7 0 4 6 3 14 -3 10 -8 16 -9 21 -1
4 7 12 7 26 0 14 -8 19 -7 19 2 0 9 3 9 11 -2 7 -10 12 -11 15 -3 3 7 14 9 32
4 15 -5 57 -7 95 -6 44 2 67 -2 67 -9 0 -7 3 -7 8 1 4 7 19 11 32 8 13 -3 28
1 32 8 5 8 11 8 16 2 11 -15 64 -16 81 -2 8 7 12 7 9 2 -4 -7 40 -11 133 -10
76 0 139 4 139 9 0 5 6 4 13 -1 11 -8 63 -10 167 -3 25 1 54 -1 65 -5 16 -5
17 -5 5 4 -19 14 -5 14 21 1 10 -6 19 -7 19 -3 0 4 19 9 42 10 25 1 36 -2 28
-7 -9 -5 -4 -8 13 -7 14 1 23 5 20 10 -6 10 9 9 26 -2 9 -6 22 -6 33 0 12 6
18 6 18 -1 0 -6 15 -8 38 -5 67 9 153 12 157 5 5 -8 136 -5 193 4 27 5 42 4
42 -3 0 -7 8 -7 24 -1 13 5 26 7 28 4 10 -10 87 -11 91 -1 2 7 9 7 21 0 10 -6
35 -7 57 -3 25 5 36 4 32 -3 -4 -7 1 -8 13 -3 29 12 73 13 77 2 2 -5 9 -6 17
-1 18 11 54 13 107 5 23 -4 40 -3 37 2 -7 11 10 10 22 -2 5 -5 22 -6 38 -2 15
4 67 4 114 1 48 -4 107 -5 132 -3 96 9 112 9 117 1 3 -4 19 -5 36 -1 18 4 75
7 127 6 119 -1 238 -1 313 0 49 1 55 3 40 13 -11 7 -78 15 -173 19 -219 10
-304 15 -473 27 -82 5 -208 12 -280 14 -73 3 -170 7 -217 10 -47 3 -120 7
-162 9 -42 2 -80 6 -85 9 -4 3 -82 8 -172 12 -128 6 -162 5 -156 -5 6 -9 2 -9
-16 1 -17 9 -72 12 -189 11 -91 -1 -176 -3 -190 -5 -14 -2 -31 1 -37 6 -9 7
-13 4 -13 -9 0 -16 -2 -16 -10 -4 -11 17 -99 23 -117 8 -9 -7 -13 -7 -13 1 0
7 -4 9 -10 6 -5 -3 -19 -1 -31 6 -15 8 -19 8 -15 0 4 -6 3 -11 -3 -11 -5 0
-12 4 -15 8 -3 5 -128 10 -278 11 -150 1 -304 3 -343 4 -38 1 -106 1 -150 -1z
m-4 -35 c-10 -9 -11 -8 -5 6 3 10 9 15 12 12 3 -3 0 -11 -7 -18z m-716 -6 c3
-5 1 -12 -5 -16 -5 -3 -10 1 -10 9 0 18 6 21 15 7z m-887 -24 c19 -1 14 -11
-12 -23 -21 -10 -23 -9 -19 10 4 17 3 18 -6 6 -11 -16 -27 -7 -16 10 4 6 14 8
24 4 9 -3 22 -7 29 -7z m-405 -3 c7 -7 -2 -34 -12 -34 -4 0 -7 9 -7 20 0 20 7
25 19 14z m47 2 c0 -3 -4 -8 -10 -11 -5 -3 -10 -1 -10 4 0 6 5 11 10 11 6 0
10 -2 10 -4z m404 -11 c-4 -8 -7 -15 -9 -15 -2 0 -5 7 -9 15 -3 9 0 15 9 15 9
0 12 -6 9 -15z m-866 -2 c-10 -2 -26 -2 -35 0 -10 3 -2 5 17 5 19 0 27 -2 18
-5z m2182 3 c0 -2 -7 -7 -16 -10 -8 -3 -12 -2 -9 4 6 10 25 14 25 6z m-2625
-26 c3 -6 -1 -7 -9 -4 -18 7 -21 14 -7 14 6 0 13 -4 16 -10z m1009 -16 c3 -8
2 -12 -4 -9 -6 3 -10 10 -10 16 0 14 7 11 14 -7z m56 2 c0 -3 -4 -8 -10 -11
-5 -3 -10 -1 -10 4 0 6 5 11 10 11 6 0 10 -2 10 -4z m-1165 -16 c-3 -5 -14
-10 -23 -9 -14 0 -13 2 3 9 27 11 27 11 20 0z"/>
<path d="M26098 1943 c7 -3 16 -2 19 1 4 3 -2 6 -13 5 -11 0 -14 -3 -6 -6z"/>
<path d="M17898 1923 c7 -3 16 -2 19 1 4 3 -2 6 -13 5 -11 0 -14 -3 -6 -6z"/>
<path d="M27340 1920 c-13 -8 -12 -10 3 -10 9 0 17 5 17 10 0 12 -1 12 -20 0z"/>
<path d="M18012 1914 c11 -10 101 -16 95 -6 -4 5 -28 10 -53 10 -26 1 -44 -1
-42 -4z"/>
<path d="M26998 1903 c7 -3 16 -2 19 1 4 3 -2 6 -13 5 -11 0 -14 -3 -6 -6z"/>
<path d="M26800 1881 c0 -5 67 -9 150 -9 83 0 147 4 144 9 -3 5 -70 9 -150 9
-79 0 -144 -4 -144 -9z"/>
</g>
</svg>
